<svg width="29" height="36" viewBox="0 0 29 36" fill="none" xmlns="http://www.w3.org/2000/svg">
<path d="M25.1816 7.81818H21.6816C21.6816 3.95068 18.5491 0.818176 14.6816 0.818176C10.8141 0.818176 7.68164 3.95068 7.68164 7.81818H4.18164C2.25664 7.81818 0.681641 9.39318 0.681641 11.3182V32.3182C0.681641 34.2432 2.25664 35.8182 4.18164 35.8182H25.1816C27.1066 35.8182 28.6816 34.2432 28.6816 32.3182V11.3182C28.6816 9.39318 27.1066 7.81818 25.1816 7.81818ZM14.6816 4.31818C16.6066 4.31818 18.1816 5.89318 18.1816 7.81818H11.1816C11.1816 5.89318 12.7566 4.31818 14.6816 4.31818ZM25.1816 32.3182H4.18164V11.3182H7.68164V14.8182C7.68164 15.7807 8.46914 16.5682 9.43164 16.5682C10.3941 16.5682 11.1816 15.7807 11.1816 14.8182V11.3182H18.1816V14.8182C18.1816 15.7807 18.9691 16.5682 19.9316 16.5682C20.8941 16.5682 21.6816 15.7807 21.6816 14.8182V11.3182H25.1816V32.3182Z" fill="black"/>
</svg>
