<svg width="452" height="452" viewBox="0 0 452 452" fill="none" xmlns="http://www.w3.org/2000/svg">
<rect width="452" height="452" fill="white"/>
<path d="M26.6354 190.396H45.0449L64.4886 237.833H65.3159L84.7596 190.396H103.169V261H88.6897V215.045H88.1037L69.8321 260.655H59.9724L41.7008 214.873H41.1148V261H26.6354V190.396ZM114.4 261V190.396H161.975V202.703H129.328V219.527H159.527V231.834H129.328V248.693H162.113V261H114.4ZM172.775 261V190.396H200.63C205.963 190.396 210.513 191.35 214.282 193.257C218.075 195.142 220.959 197.82 222.936 201.29C224.935 204.737 225.935 208.794 225.935 213.46C225.935 218.148 224.924 222.182 222.901 225.56C220.879 228.916 217.948 231.49 214.11 233.282C210.295 235.075 205.675 235.971 200.251 235.971H181.6V223.974H197.838C200.688 223.974 203.055 223.584 204.94 222.802C206.824 222.021 208.226 220.849 209.146 219.286C210.088 217.723 210.559 215.781 210.559 213.46C210.559 211.115 210.088 209.139 209.146 207.53C208.226 205.921 206.813 204.703 204.905 203.876C203.021 203.025 200.642 202.6 197.769 202.6H187.702V261H172.775ZM210.904 228.87L228.451 261H211.973L194.804 228.87H210.904ZM235.416 261V190.396H263.272C268.604 190.396 273.154 191.35 276.924 193.257C280.716 195.142 283.6 197.82 285.577 201.29C287.576 204.737 288.576 208.794 288.576 213.46C288.576 218.148 287.565 222.182 285.542 225.56C283.52 228.916 280.589 231.49 276.751 233.282C272.936 235.075 268.316 235.971 262.892 235.971H244.242V223.974H260.479C263.329 223.974 265.696 223.584 267.581 222.802C269.466 222.021 270.868 220.849 271.787 219.286C272.729 217.723 273.2 215.781 273.2 213.46C273.2 211.115 272.729 209.139 271.787 207.53C270.868 205.921 269.454 204.703 267.547 203.876C265.662 203.025 263.283 202.6 260.41 202.6H250.344V261H235.416ZM273.545 228.87L291.093 261H274.614L257.445 228.87H273.545ZM362.939 225.698C362.939 233.397 361.479 239.948 358.56 245.349C355.664 250.75 351.711 254.875 346.701 257.725C341.714 260.552 336.106 261.965 329.877 261.965C323.603 261.965 317.972 260.54 312.985 257.69C307.998 254.841 304.056 250.715 301.16 245.314C298.264 239.913 296.816 233.374 296.816 225.698C296.816 217.999 298.264 211.448 301.16 206.047C304.056 200.646 307.998 196.532 312.985 193.706C317.972 190.856 323.603 189.431 329.877 189.431C336.106 189.431 341.714 190.856 346.701 193.706C351.711 196.532 355.664 200.646 358.56 206.047C361.479 211.448 362.939 217.999 362.939 225.698ZM347.804 225.698C347.804 220.711 347.057 216.505 345.563 213.08C344.092 209.656 342.013 207.059 339.323 205.289C336.634 203.519 333.486 202.634 329.877 202.634C326.269 202.634 323.12 203.519 320.431 205.289C317.742 207.059 315.651 209.656 314.157 213.08C312.686 216.505 311.951 220.711 311.951 225.698C311.951 230.685 312.686 234.891 314.157 238.316C315.651 241.74 317.742 244.337 320.431 246.107C323.12 247.877 326.269 248.762 329.877 248.762C333.486 248.762 336.634 247.877 339.323 246.107C342.013 244.337 344.092 241.74 345.563 238.316C347.057 234.891 347.804 230.685 347.804 225.698ZM372.928 261V190.396H400.784C406.116 190.396 410.667 191.35 414.436 193.257C418.228 195.142 421.112 197.82 423.089 201.29C425.089 204.737 426.088 208.794 426.088 213.46C426.088 218.148 425.077 222.182 423.055 225.56C421.032 228.916 418.102 231.49 414.263 233.282C410.448 235.075 405.829 235.971 400.405 235.971H381.754V223.974H397.991C400.841 223.974 403.209 223.584 405.093 222.802C406.978 222.021 408.38 220.849 409.299 219.286C410.241 217.723 410.713 215.781 410.713 213.46C410.713 211.115 410.241 209.139 409.299 207.53C408.38 205.921 406.966 204.703 405.059 203.876C403.174 203.025 400.795 202.6 397.923 202.6H387.856V261H372.928ZM411.057 228.87L428.605 261H412.126L394.958 228.87H411.057Z" fill="black"/>
</svg>
