<svg width="35" height="35" viewBox="0 0 35 35" fill="none" xmlns="http://www.w3.org/2000/svg">
<path fill-rule="evenodd" clip-rule="evenodd" d="M0.625 15.625C0.625 8.55438 0.625 5.01813 2.8225 2.8225C5.02 0.626875 8.55438 0.625 15.625 0.625H19.375C26.4456 0.625 29.9819 0.625 32.1775 2.8225C34.3731 5.02 34.375 8.55438 34.375 15.625V19.375C34.375 26.4456 34.375 29.9819 32.1775 32.1775C29.98 34.3731 26.4456 34.375 19.375 34.375H15.625C8.55438 34.375 5.01813 34.375 2.8225 32.1775C0.626875 29.98 0.625 26.4456 0.625 19.375V15.625ZM28.75 9.0625C28.75 9.80842 28.4537 10.5238 27.9262 11.0512C27.3988 11.5787 26.6834 11.875 25.9375 11.875C25.1916 11.875 24.4762 11.5787 23.9488 11.0512C23.4213 10.5238 23.125 9.80842 23.125 9.0625C23.125 8.31658 23.4213 7.60121 23.9488 7.07376C24.4762 6.54632 25.1916 6.25 25.9375 6.25C26.6834 6.25 27.3988 6.54632 27.9262 7.07376C28.4537 7.60121 28.75 8.31658 28.75 9.0625ZM21.25 19.375C21.25 20.3696 20.8549 21.3234 20.1516 22.0266C19.4484 22.7299 18.4946 23.125 17.5 23.125C16.5054 23.125 15.5516 22.7299 14.8484 22.0266C14.1451 21.3234 13.75 20.3696 13.75 19.375C13.75 18.3804 14.1451 17.4266 14.8484 16.7234C15.5516 16.0201 16.5054 15.625 17.5 15.625C18.4946 15.625 19.4484 16.0201 20.1516 16.7234C20.8549 17.4266 21.25 18.3804 21.25 19.375ZM25 19.375C25 21.3641 24.2098 23.2718 22.8033 24.6783C21.3968 26.0848 19.4891 26.875 17.5 26.875C15.5109 26.875 13.6032 26.0848 12.1967 24.6783C10.7902 23.2718 10 21.3641 10 19.375C10 17.3859 10.7902 15.4782 12.1967 14.0717C13.6032 12.6652 15.5109 11.875 17.5 11.875C19.4891 11.875 21.3968 12.6652 22.8033 14.0717C24.2098 15.4782 25 17.3859 25 19.375Z" fill="white"/>
</svg>
