<svg width="32" height="32" viewBox="0 0 32 32" fill="none" xmlns="http://www.w3.org/2000/svg">
<path d="M25 25.25C25.862 25.25 26.6886 25.5924 27.2981 26.2019C27.9076 26.8114 28.25 27.638 28.25 28.5C28.25 29.362 27.9076 30.1886 27.2981 30.7981C26.6886 31.4076 25.862 31.75 25 31.75C24.138 31.75 23.3114 31.4076 22.7019 30.7981C22.0924 30.1886 21.75 29.362 21.75 28.5C21.75 27.638 22.0924 26.8114 22.7019 26.2019C23.3114 25.5924 24.138 25.25 25 25.25ZM25 26.875C24.569 26.875 24.1557 27.0462 23.851 27.351C23.5462 27.6557 23.375 28.069 23.375 28.5C23.375 28.931 23.5462 29.3443 23.851 29.649C24.1557 29.9538 24.569 30.125 25 30.125C25.431 30.125 25.8443 29.9538 26.149 29.649C26.4538 29.3443 26.625 28.931 26.625 28.5C26.625 28.069 26.4538 27.6557 26.149 27.351C25.8443 27.0462 25.431 26.875 25 26.875ZM10.375 25.25C11.237 25.25 12.0636 25.5924 12.6731 26.2019C13.2826 26.8114 13.625 27.638 13.625 28.5C13.625 29.362 13.2826 30.1886 12.6731 30.7981C12.0636 31.4076 11.237 31.75 10.375 31.75C9.51305 31.75 8.6864 31.4076 8.0769 30.7981C7.46741 30.1886 7.125 29.362 7.125 28.5C7.125 27.638 7.46741 26.8114 8.0769 26.2019C8.6864 25.5924 9.51305 25.25 10.375 25.25ZM10.375 26.875C9.94402 26.875 9.5307 27.0462 9.22595 27.351C8.92121 27.6557 8.75 28.069 8.75 28.5C8.75 28.931 8.92121 29.3443 9.22595 29.649C9.5307 29.9538 9.94402 30.125 10.375 30.125C10.806 30.125 11.2193 29.9538 11.524 29.649C11.8288 29.3443 12 28.931 12 28.5C12 28.069 11.8288 27.6557 11.524 27.351C11.2193 27.0462 10.806 26.875 10.375 26.875ZM28.25 5.75H5.93875L10.0825 15.5H23.375C23.9112 15.5 24.3825 15.24 24.675 14.85L29.55 8.35C29.7612 8.07375 29.875 7.7325 29.875 7.375C29.875 6.94402 29.7038 6.5307 29.399 6.22595C29.0943 5.92121 28.681 5.75 28.25 5.75ZM23.375 17.125H10.1637L8.9125 19.66L8.75 20.375C8.75 20.806 8.92121 21.2193 9.22595 21.524C9.5307 21.8288 9.94402 22 10.375 22H28.25V23.625H10.375C9.51305 23.625 8.6864 23.2826 8.0769 22.6731C7.46741 22.0636 7.125 21.237 7.125 20.375C7.12452 19.8236 7.26432 19.2812 7.53125 18.7987L8.70125 16.41L2.8025 2.5H0.625V0.875H3.875L5.25625 4.125H28.25C29.112 4.125 29.9386 4.46741 30.5481 5.0769C31.1576 5.6864 31.5 6.51305 31.5 7.375C31.5 8.1875 31.2237 8.87 30.7687 9.4225L26.04 15.7437C25.455 16.5725 24.48 17.125 23.375 17.125Z" fill="black"/>
</svg>
