<svg width="649" height="631" viewBox="0 0 649 631" fill="none" xmlns="http://www.w3.org/2000/svg">
<rect x="4.05257" y="3.75179" width="640.806" height="622.797" fill="black" stroke="black" stroke-width="7.50358"/>
<path d="M273.28 370.257L332.853 137.088L321.373 315.443L473.579 110.154L376.432 388.067L371.749 450.786L381.917 541.89L310.848 411.991L34.9865 400.428L273.28 370.257Z" fill="white"/>
<path d="M302.096 321.275L556.258 291.581L375.221 343.938L638.138 404.545L324.945 417.203L263.772 436.635L174.846 475.738L275.53 368.532L178.725 124.597L302.096 321.275Z" fill="white"/>
<path d="M357.027 368.103C352.075 397.517 337.066 419.415 323.502 417.013C309.939 414.611 302.957 388.819 307.909 359.405C312.86 329.991 327.869 308.094 341.433 310.496C348.394 311.729 298.29 416.544 343.521 343.623C356.575 344.972 359.437 353.786 357.027 368.103Z" fill="black"/>
</svg>
