<svg width="649" height="631" viewBox="0 0 649 631" fill="none" xmlns="http://www.w3.org/2000/svg">
<rect width="648.309" height="630.301" fill="white"/>
<path d="M254.97 370.257L314.543 137.088L303.062 315.443L455.269 110.154L358.122 388.067L353.438 450.786L363.606 541.89L292.537 411.991L16.676 400.428L254.97 370.257Z" fill="black"/>
<path d="M283.787 321.275L537.949 291.581L356.913 343.938L619.829 404.545L306.636 417.203L245.463 436.635L156.538 475.738L257.222 368.532L160.417 124.597L283.787 321.275Z" fill="black"/>
<path d="M339.82 364.377C335.286 391.309 321.543 411.359 309.124 409.159C296.705 406.96 290.312 383.344 294.846 356.412C299.379 329.48 313.122 309.43 325.542 311.629C331.916 312.758 286.039 408.73 327.454 341.962C339.406 343.196 342.026 351.267 339.82 364.377Z" fill="white"/>
</svg>
