<svg width="649" height="631" viewBox="0 0 649 631" fill="none" xmlns="http://www.w3.org/2000/svg">
<rect x="0.607422" width="648.309" height="630.301" fill="white"/>
<path d="M257.064 372.805L316.279 141.037L304.868 318.32L456.16 114.265L359.597 390.509L354.941 452.851L365.048 543.408L294.406 414.289L20.2017 402.796L257.064 372.805Z" fill="#DD0301"/>
<path d="M285.71 324.119L538.345 294.603L358.396 346.645L619.734 406.888L308.422 419.47L247.616 438.786L159.225 477.654L259.304 371.092L163.08 128.622L285.71 324.119Z" fill="#DD0301"/>
<path d="M347.928 373.478C343.267 401.169 329.137 421.783 316.368 419.522C303.599 417.261 297.027 392.98 301.688 365.289C306.349 337.598 320.479 316.984 333.248 319.245C339.802 320.405 292.633 419.081 335.214 350.432C347.503 351.701 350.197 359.999 347.928 373.478Z" fill="black"/>
</svg>
