<svg width="38" height="37" viewBox="0 0 38 37" fill="none" xmlns="http://www.w3.org/2000/svg">
<path d="M19 0C8.512 0 0 8.288 0 18.5C0 28.712 8.512 37 19 37C29.488 37 38 28.712 38 18.5C38 8.288 29.488 0 19 0ZM27.816 12.58C27.531 15.503 26.296 22.607 25.669 25.8815C25.403 27.269 24.871 27.7315 24.377 27.787C23.275 27.8795 22.439 27.084 21.375 26.3995C19.703 25.3265 18.753 24.6605 17.138 23.6245C15.257 22.422 16.473 21.756 17.556 20.683C17.841 20.4055 22.705 16.095 22.8 15.7065C22.8132 15.6477 22.8114 15.5866 22.7949 15.5285C22.7783 15.4705 22.7475 15.4173 22.705 15.3735C22.591 15.281 22.439 15.318 22.306 15.3365C22.135 15.3735 19.475 17.094 14.288 20.498C13.528 20.9975 12.844 21.2565 12.236 21.238C11.552 21.2195 10.26 20.868 9.291 20.5535C8.094 20.1835 7.163 19.98 7.239 19.3325C7.277 18.9995 7.752 18.6665 8.645 18.315C14.193 15.9655 17.879 14.4115 19.722 13.6715C25.004 11.5255 26.087 11.1555 26.809 11.1555C26.961 11.1555 27.322 11.1925 27.55 11.3775C27.74 11.5255 27.797 11.729 27.816 11.877C27.797 11.988 27.835 12.321 27.816 12.58Z" fill="white"/>
</svg>
