<svg width="38" height="38" viewBox="0 0 38 38" fill="none" xmlns="http://www.w3.org/2000/svg">
<path fill-rule="evenodd" clip-rule="evenodd" d="M18.75 0.0489502C8.39438 0.0489502 0 8.44333 0 18.799C0 22.3427 0.984375 25.6614 2.69625 28.4889L1.02375 34.174C0.927721 34.5004 0.921403 34.8466 1.00546 35.1763C1.08951 35.506 1.26084 35.8069 1.50142 36.0475C1.74201 36.2881 2.04296 36.4594 2.37266 36.5435C2.70235 36.6275 3.04859 36.6212 3.375 36.5252L9.06 34.8527C11.9826 36.6207 15.3342 37.5533 18.75 37.549C29.1056 37.549 37.5 29.1546 37.5 18.799C37.5 8.44333 29.1056 0.0489502 18.75 0.0489502ZM14.5087 23.0421C18.3019 26.8333 21.9225 27.334 23.2013 27.3808C25.1456 27.4521 27.0394 25.9671 27.7762 24.2439C27.8685 24.0294 27.9018 23.7942 27.8728 23.5625C27.8438 23.3308 27.7535 23.111 27.6112 22.9258C26.5837 21.6133 25.1944 20.6702 23.8369 19.7327C23.5536 19.5363 23.2052 19.4574 22.8649 19.5126C22.5246 19.5679 22.2191 19.753 22.0125 20.0289L20.8875 21.7446C20.8281 21.8365 20.7359 21.9023 20.6297 21.9288C20.5235 21.9552 20.4112 21.9403 20.3156 21.8871C19.5525 21.4502 18.4406 20.7077 17.6419 19.909C16.8431 19.1102 16.1456 18.049 15.7538 17.3346C15.7063 17.2436 15.6929 17.1386 15.716 17.0386C15.739 16.9386 15.7969 16.8501 15.8794 16.789L17.6119 15.5027C17.8598 15.2882 18.0199 14.9897 18.0614 14.6645C18.103 14.3392 18.023 14.0101 17.8369 13.7402C16.9969 12.5102 16.0181 10.9465 14.5988 9.90957C14.4152 9.77768 14.2007 9.69544 13.976 9.6708C13.7513 9.64616 13.524 9.67997 13.3163 9.76895C11.5913 10.5077 10.0987 12.4015 10.17 14.3496C10.2169 15.6283 10.7175 19.2489 14.5087 23.0421Z" fill="white"/>
</svg>
